<mxfile host="app.diagrams.net" modified="2023-11-13T09:13:16.550Z" agent="Mozilla/5.0 (Windows NT 10.0; Win64; x64) AppleWebKit/537.36 (KHTML, like Gecko) Chrome/119.0.0.0 Safari/537.36" etag="iEZRSVledhK0gFkdxUOq" version="22.1.0" type="github">
  <diagram name="第 1 页" id="bine2cX4gsOpG5Ys-mz4">
    <mxGraphModel dx="1994" dy="602" grid="1" gridSize="10" guides="1" tooltips="1" connect="1" arrows="1" fold="1" page="1" pageScale="1" pageWidth="827" pageHeight="1169" math="0" shadow="0">
      <root>
        <mxCell id="0" />
        <mxCell id="1" parent="0" />
        <mxCell id="95OTykpPr1zENCsGVvWN-3" value="" style="edgeStyle=orthogonalEdgeStyle;rounded=0;orthogonalLoop=1;jettySize=auto;html=1;" edge="1" parent="1" target="95OTykpPr1zENCsGVvWN-2">
          <mxGeometry relative="1" as="geometry">
            <mxPoint x="414" y="130" as="sourcePoint" />
          </mxGeometry>
        </mxCell>
        <mxCell id="95OTykpPr1zENCsGVvWN-5" value="" style="edgeStyle=orthogonalEdgeStyle;rounded=0;orthogonalLoop=1;jettySize=auto;html=1;" edge="1" parent="1" source="95OTykpPr1zENCsGVvWN-2" target="95OTykpPr1zENCsGVvWN-4">
          <mxGeometry relative="1" as="geometry" />
        </mxCell>
        <mxCell id="95OTykpPr1zENCsGVvWN-6" value="" style="edgeStyle=orthogonalEdgeStyle;rounded=0;orthogonalLoop=1;jettySize=auto;html=1;" edge="1" parent="1" source="95OTykpPr1zENCsGVvWN-2" target="95OTykpPr1zENCsGVvWN-4">
          <mxGeometry relative="1" as="geometry" />
        </mxCell>
        <mxCell id="95OTykpPr1zENCsGVvWN-8" value="" style="edgeStyle=orthogonalEdgeStyle;rounded=0;orthogonalLoop=1;jettySize=auto;html=1;" edge="1" parent="1" source="95OTykpPr1zENCsGVvWN-2" target="95OTykpPr1zENCsGVvWN-7">
          <mxGeometry relative="1" as="geometry" />
        </mxCell>
        <mxCell id="95OTykpPr1zENCsGVvWN-2" value="sku集合" style="whiteSpace=wrap;html=1;" vertex="1" parent="1">
          <mxGeometry x="354" y="220" width="120" height="60" as="geometry" />
        </mxCell>
        <mxCell id="95OTykpPr1zENCsGVvWN-14" value="" style="edgeStyle=orthogonalEdgeStyle;rounded=0;orthogonalLoop=1;jettySize=auto;html=1;" edge="1" parent="1" source="95OTykpPr1zENCsGVvWN-4" target="95OTykpPr1zENCsGVvWN-13">
          <mxGeometry relative="1" as="geometry" />
        </mxCell>
        <mxCell id="95OTykpPr1zENCsGVvWN-16" value="" style="edgeStyle=orthogonalEdgeStyle;rounded=0;orthogonalLoop=1;jettySize=auto;html=1;" edge="1" parent="1" source="95OTykpPr1zENCsGVvWN-4" target="95OTykpPr1zENCsGVvWN-15">
          <mxGeometry relative="1" as="geometry" />
        </mxCell>
        <mxCell id="95OTykpPr1zENCsGVvWN-4" value="有拿货任务sku" style="whiteSpace=wrap;html=1;" vertex="1" parent="1">
          <mxGeometry x="140" y="380" width="120" height="60" as="geometry" />
        </mxCell>
        <mxCell id="95OTykpPr1zENCsGVvWN-10" value="" style="edgeStyle=orthogonalEdgeStyle;rounded=0;orthogonalLoop=1;jettySize=auto;html=1;" edge="1" parent="1" source="95OTykpPr1zENCsGVvWN-7" target="95OTykpPr1zENCsGVvWN-9">
          <mxGeometry relative="1" as="geometry" />
        </mxCell>
        <mxCell id="95OTykpPr1zENCsGVvWN-7" value="没有拿货任务sku" style="whiteSpace=wrap;html=1;" vertex="1" parent="1">
          <mxGeometry x="570" y="380" width="120" height="60" as="geometry" />
        </mxCell>
        <mxCell id="95OTykpPr1zENCsGVvWN-12" value="" style="edgeStyle=orthogonalEdgeStyle;rounded=0;orthogonalLoop=1;jettySize=auto;html=1;" edge="1" parent="1" source="95OTykpPr1zENCsGVvWN-9">
          <mxGeometry relative="1" as="geometry">
            <mxPoint x="630" y="650" as="targetPoint" />
          </mxGeometry>
        </mxCell>
        <mxCell id="95OTykpPr1zENCsGVvWN-9" value="调用goods进行&lt;br&gt;商品改价" style="whiteSpace=wrap;html=1;" vertex="1" parent="1">
          <mxGeometry x="570" y="520" width="120" height="60" as="geometry" />
        </mxCell>
        <mxCell id="95OTykpPr1zENCsGVvWN-20" value="" style="edgeStyle=orthogonalEdgeStyle;rounded=0;orthogonalLoop=1;jettySize=auto;html=1;fontFamily=Helvetica;fontSize=12;fontColor=default;" edge="1" parent="1" source="95OTykpPr1zENCsGVvWN-13" target="95OTykpPr1zENCsGVvWN-19">
          <mxGeometry relative="1" as="geometry" />
        </mxCell>
        <mxCell id="95OTykpPr1zENCsGVvWN-13" value="普通匹配商品" style="whiteSpace=wrap;html=1;" vertex="1" parent="1">
          <mxGeometry x="-20" y="540" width="120" height="60" as="geometry" />
        </mxCell>
        <mxCell id="95OTykpPr1zENCsGVvWN-18" value="" style="edgeStyle=orthogonalEdgeStyle;rounded=0;orthogonalLoop=1;jettySize=auto;html=1;fontFamily=Helvetica;fontSize=12;fontColor=default;" edge="1" parent="1" source="95OTykpPr1zENCsGVvWN-15" target="95OTykpPr1zENCsGVvWN-17">
          <mxGeometry relative="1" as="geometry" />
        </mxCell>
        <mxCell id="95OTykpPr1zENCsGVvWN-15" value="供应商匹配商品" style="whiteSpace=wrap;html=1;" vertex="1" parent="1">
          <mxGeometry x="294" y="540" width="120" height="60" as="geometry" />
        </mxCell>
        <mxCell id="95OTykpPr1zENCsGVvWN-22" value="" style="edgeStyle=orthogonalEdgeStyle;rounded=0;orthogonalLoop=1;jettySize=auto;html=1;fontFamily=Helvetica;fontSize=12;fontColor=default;" edge="1" parent="1" source="95OTykpPr1zENCsGVvWN-17">
          <mxGeometry relative="1" as="geometry">
            <mxPoint x="490" y="920" as="targetPoint" />
          </mxGeometry>
        </mxCell>
        <mxCell id="95OTykpPr1zENCsGVvWN-80" value="NO" style="edgeLabel;html=1;align=center;verticalAlign=middle;resizable=0;points=[];fontSize=12;fontFamily=Helvetica;fontColor=default;" vertex="1" connectable="0" parent="95OTykpPr1zENCsGVvWN-22">
          <mxGeometry x="-0.7057" y="-2" relative="1" as="geometry">
            <mxPoint as="offset" />
          </mxGeometry>
        </mxCell>
        <mxCell id="95OTykpPr1zENCsGVvWN-24" value="" style="edgeStyle=orthogonalEdgeStyle;rounded=0;orthogonalLoop=1;jettySize=auto;html=1;fontFamily=Helvetica;fontSize=12;fontColor=default;" edge="1" parent="1" source="95OTykpPr1zENCsGVvWN-17" target="95OTykpPr1zENCsGVvWN-23">
          <mxGeometry relative="1" as="geometry" />
        </mxCell>
        <mxCell id="95OTykpPr1zENCsGVvWN-26" value="OFF" style="edgeLabel;html=1;align=center;verticalAlign=middle;resizable=0;points=[];fontSize=12;fontFamily=Helvetica;fontColor=default;" vertex="1" connectable="0" parent="95OTykpPr1zENCsGVvWN-24">
          <mxGeometry x="-0.2" y="-1" relative="1" as="geometry">
            <mxPoint as="offset" />
          </mxGeometry>
        </mxCell>
        <mxCell id="95OTykpPr1zENCsGVvWN-17" value="供应商匹配审核开关" style="rhombus;whiteSpace=wrap;html=1;" vertex="1" parent="1">
          <mxGeometry x="314" y="670" width="80" height="80" as="geometry" />
        </mxCell>
        <mxCell id="95OTykpPr1zENCsGVvWN-28" value="" style="edgeStyle=orthogonalEdgeStyle;rounded=0;orthogonalLoop=1;jettySize=auto;html=1;fontFamily=Helvetica;fontSize=12;fontColor=default;" edge="1" parent="1" source="95OTykpPr1zENCsGVvWN-19">
          <mxGeometry relative="1" as="geometry">
            <mxPoint x="-170" y="930" as="targetPoint" />
          </mxGeometry>
        </mxCell>
        <mxCell id="95OTykpPr1zENCsGVvWN-31" value="OFF" style="edgeLabel;html=1;align=center;verticalAlign=middle;resizable=0;points=[];fontSize=12;fontFamily=Helvetica;fontColor=default;" vertex="1" connectable="0" parent="95OTykpPr1zENCsGVvWN-28">
          <mxGeometry x="-0.4707" y="2" relative="1" as="geometry">
            <mxPoint as="offset" />
          </mxGeometry>
        </mxCell>
        <mxCell id="95OTykpPr1zENCsGVvWN-78" style="edgeStyle=orthogonalEdgeStyle;rounded=0;orthogonalLoop=1;jettySize=auto;html=1;fontFamily=Helvetica;fontSize=12;fontColor=default;entryX=0;entryY=0.5;entryDx=0;entryDy=0;entryPerimeter=0;" edge="1" parent="1" source="95OTykpPr1zENCsGVvWN-19" target="95OTykpPr1zENCsGVvWN-49">
          <mxGeometry relative="1" as="geometry">
            <mxPoint x="70" y="1080" as="targetPoint" />
            <Array as="points">
              <mxPoint x="40" y="970" />
              <mxPoint x="71" y="970" />
              <mxPoint x="440" y="969" />
            </Array>
          </mxGeometry>
        </mxCell>
        <mxCell id="95OTykpPr1zENCsGVvWN-79" value="ON" style="edgeLabel;html=1;align=center;verticalAlign=middle;resizable=0;points=[];fontSize=12;fontFamily=Helvetica;fontColor=default;" vertex="1" connectable="0" parent="95OTykpPr1zENCsGVvWN-78">
          <mxGeometry x="-0.7168" relative="1" as="geometry">
            <mxPoint as="offset" />
          </mxGeometry>
        </mxCell>
        <mxCell id="95OTykpPr1zENCsGVvWN-19" value="普通匹配审核开关" style="rhombus;whiteSpace=wrap;html=1;" vertex="1" parent="1">
          <mxGeometry y="670" width="80" height="80" as="geometry" />
        </mxCell>
        <mxCell id="95OTykpPr1zENCsGVvWN-35" style="edgeStyle=orthogonalEdgeStyle;rounded=0;orthogonalLoop=1;jettySize=auto;html=1;fontFamily=Helvetica;fontSize=12;fontColor=default;entryX=1;entryY=0.5;entryDx=0;entryDy=0;" edge="1" parent="1" source="95OTykpPr1zENCsGVvWN-23" target="95OTykpPr1zENCsGVvWN-19">
          <mxGeometry relative="1" as="geometry">
            <mxPoint x="200" y="660" as="targetPoint" />
            <Array as="points">
              <mxPoint x="201" y="870" />
              <mxPoint x="201" y="710" />
            </Array>
          </mxGeometry>
        </mxCell>
        <mxCell id="95OTykpPr1zENCsGVvWN-23" value="走普通匹配逻辑" style="whiteSpace=wrap;html=1;" vertex="1" parent="1">
          <mxGeometry x="294" y="840" width="120" height="60" as="geometry" />
        </mxCell>
        <mxCell id="95OTykpPr1zENCsGVvWN-84" value="" style="edgeStyle=orthogonalEdgeStyle;rounded=0;orthogonalLoop=1;jettySize=auto;html=1;fontFamily=Helvetica;fontSize=12;fontColor=default;" edge="1" parent="1" source="95OTykpPr1zENCsGVvWN-29" target="95OTykpPr1zENCsGVvWN-83">
          <mxGeometry relative="1" as="geometry" />
        </mxCell>
        <mxCell id="95OTykpPr1zENCsGVvWN-29" value="组装数据" style="whiteSpace=wrap;html=1;" vertex="1" parent="1">
          <mxGeometry x="-230" y="930" width="120" height="60" as="geometry" />
        </mxCell>
        <mxCell id="95OTykpPr1zENCsGVvWN-37" value="调用goods生成审核数据" style="whiteSpace=wrap;html=1;" vertex="1" parent="1">
          <mxGeometry x="620" y="1300" width="120" height="60" as="geometry" />
        </mxCell>
        <mxCell id="95OTykpPr1zENCsGVvWN-45" value="开始&lt;br style=&quot;border-color: var(--border-color);&quot;&gt;app发起请求" style="strokeWidth=2;html=1;shape=mxgraph.flowchart.start_1;whiteSpace=wrap;strokeColor=default;align=center;verticalAlign=middle;fontFamily=Helvetica;fontSize=12;fontColor=default;fillColor=default;" vertex="1" parent="1">
          <mxGeometry x="364" y="70" width="100" height="60" as="geometry" />
        </mxCell>
        <mxCell id="95OTykpPr1zENCsGVvWN-47" value="结束" style="strokeWidth=2;html=1;shape=mxgraph.flowchart.start_1;whiteSpace=wrap;strokeColor=default;align=center;verticalAlign=middle;fontFamily=Helvetica;fontSize=12;fontColor=default;fillColor=default;" vertex="1" parent="1">
          <mxGeometry x="580" y="650" width="100" height="60" as="geometry" />
        </mxCell>
        <mxCell id="95OTykpPr1zENCsGVvWN-48" value="结束" style="strokeWidth=2;html=1;shape=mxgraph.flowchart.start_1;whiteSpace=wrap;strokeColor=default;align=center;verticalAlign=middle;fontFamily=Helvetica;fontSize=12;fontColor=default;fillColor=default;" vertex="1" parent="1">
          <mxGeometry x="1000" y="1210" width="100" height="60" as="geometry" />
        </mxCell>
        <mxCell id="95OTykpPr1zENCsGVvWN-54" value="" style="edgeStyle=orthogonalEdgeStyle;rounded=0;orthogonalLoop=1;jettySize=auto;html=1;fontFamily=Helvetica;fontSize=12;fontColor=default;" edge="1" parent="1" source="95OTykpPr1zENCsGVvWN-49" target="95OTykpPr1zENCsGVvWN-53">
          <mxGeometry relative="1" as="geometry" />
        </mxCell>
        <mxCell id="95OTykpPr1zENCsGVvWN-56" value="Y" style="edgeLabel;html=1;align=center;verticalAlign=middle;resizable=0;points=[];fontSize=12;fontFamily=Helvetica;fontColor=default;" vertex="1" connectable="0" parent="95OTykpPr1zENCsGVvWN-54">
          <mxGeometry x="-0.2457" y="3" relative="1" as="geometry">
            <mxPoint as="offset" />
          </mxGeometry>
        </mxCell>
        <mxCell id="95OTykpPr1zENCsGVvWN-58" value="" style="edgeStyle=orthogonalEdgeStyle;rounded=0;orthogonalLoop=1;jettySize=auto;html=1;fontFamily=Helvetica;fontSize=12;fontColor=default;" edge="1" parent="1" source="95OTykpPr1zENCsGVvWN-49">
          <mxGeometry relative="1" as="geometry">
            <mxPoint x="490" y="1099" as="targetPoint" />
          </mxGeometry>
        </mxCell>
        <mxCell id="95OTykpPr1zENCsGVvWN-59" value="N" style="edgeLabel;html=1;align=center;verticalAlign=middle;resizable=0;points=[];fontSize=12;fontFamily=Helvetica;fontColor=default;" vertex="1" connectable="0" parent="95OTykpPr1zENCsGVvWN-58">
          <mxGeometry x="-0.0944" y="2" relative="1" as="geometry">
            <mxPoint as="offset" />
          </mxGeometry>
        </mxCell>
        <mxCell id="95OTykpPr1zENCsGVvWN-49" value="判断改价后金额是否小于0" style="strokeWidth=2;html=1;shape=mxgraph.flowchart.decision;whiteSpace=wrap;strokeColor=default;align=center;verticalAlign=middle;fontFamily=Helvetica;fontSize=12;fontColor=default;fillColor=default;" vertex="1" parent="1">
          <mxGeometry x="440" y="919" width="100" height="100" as="geometry" />
        </mxCell>
        <mxCell id="95OTykpPr1zENCsGVvWN-53" value="抛出小于0错误" style="rounded=1;whiteSpace=wrap;html=1;strokeWidth=2;" vertex="1" parent="1">
          <mxGeometry x="610" y="939" width="120" height="60" as="geometry" />
        </mxCell>
        <mxCell id="95OTykpPr1zENCsGVvWN-61" value="" style="edgeStyle=orthogonalEdgeStyle;rounded=0;orthogonalLoop=1;jettySize=auto;html=1;fontFamily=Helvetica;fontSize=12;fontColor=default;" edge="1" parent="1">
          <mxGeometry relative="1" as="geometry">
            <mxPoint x="540" y="1149" as="sourcePoint" />
            <mxPoint x="610" y="1149" as="targetPoint" />
          </mxGeometry>
        </mxCell>
        <mxCell id="95OTykpPr1zENCsGVvWN-62" value="N" style="edgeLabel;html=1;align=center;verticalAlign=middle;resizable=0;points=[];fontSize=12;fontFamily=Helvetica;fontColor=default;" vertex="1" connectable="0" parent="95OTykpPr1zENCsGVvWN-61">
          <mxGeometry x="-0.2254" y="4" relative="1" as="geometry">
            <mxPoint as="offset" />
          </mxGeometry>
        </mxCell>
        <mxCell id="95OTykpPr1zENCsGVvWN-69" value="" style="edgeStyle=orthogonalEdgeStyle;rounded=0;orthogonalLoop=1;jettySize=auto;html=1;fontFamily=Helvetica;fontSize=12;fontColor=default;" edge="1" parent="1" source="95OTykpPr1zENCsGVvWN-57" target="95OTykpPr1zENCsGVvWN-68">
          <mxGeometry relative="1" as="geometry" />
        </mxCell>
        <mxCell id="95OTykpPr1zENCsGVvWN-57" value="判断余额账期是否充足" style="strokeWidth=2;html=1;shape=mxgraph.flowchart.decision;whiteSpace=wrap;strokeColor=default;align=center;verticalAlign=middle;fontFamily=Helvetica;fontSize=12;fontColor=default;fillColor=default;" vertex="1" parent="1">
          <mxGeometry x="440" y="1100" width="100" height="100" as="geometry" />
        </mxCell>
        <mxCell id="95OTykpPr1zENCsGVvWN-66" style="edgeStyle=orthogonalEdgeStyle;rounded=0;orthogonalLoop=1;jettySize=auto;html=1;fontFamily=Helvetica;fontSize=12;fontColor=default;" edge="1" parent="1" source="95OTykpPr1zENCsGVvWN-60" target="95OTykpPr1zENCsGVvWN-48">
          <mxGeometry relative="1" as="geometry" />
        </mxCell>
        <mxCell id="95OTykpPr1zENCsGVvWN-60" value="抛出异常" style="whiteSpace=wrap;html=1;strokeWidth=2;" vertex="1" parent="1">
          <mxGeometry x="610" y="1120" width="120" height="60" as="geometry" />
        </mxCell>
        <mxCell id="95OTykpPr1zENCsGVvWN-65" style="edgeStyle=orthogonalEdgeStyle;rounded=0;orthogonalLoop=1;jettySize=auto;html=1;entryX=0.5;entryY=0;entryDx=0;entryDy=0;entryPerimeter=0;fontFamily=Helvetica;fontSize=12;fontColor=default;" edge="1" parent="1" source="95OTykpPr1zENCsGVvWN-53" target="95OTykpPr1zENCsGVvWN-48">
          <mxGeometry relative="1" as="geometry" />
        </mxCell>
        <mxCell id="95OTykpPr1zENCsGVvWN-70" style="edgeStyle=orthogonalEdgeStyle;rounded=0;orthogonalLoop=1;jettySize=auto;html=1;entryX=0;entryY=0.5;entryDx=0;entryDy=0;fontFamily=Helvetica;fontSize=12;fontColor=default;" edge="1" parent="1" source="95OTykpPr1zENCsGVvWN-68" target="95OTykpPr1zENCsGVvWN-37">
          <mxGeometry relative="1" as="geometry" />
        </mxCell>
        <mxCell id="95OTykpPr1zENCsGVvWN-71" value="Y" style="edgeLabel;html=1;align=center;verticalAlign=middle;resizable=0;points=[];fontSize=12;fontFamily=Helvetica;fontColor=default;" vertex="1" connectable="0" parent="95OTykpPr1zENCsGVvWN-70">
          <mxGeometry x="-0.2148" y="-2" relative="1" as="geometry">
            <mxPoint as="offset" />
          </mxGeometry>
        </mxCell>
        <mxCell id="95OTykpPr1zENCsGVvWN-73" value="" style="edgeStyle=orthogonalEdgeStyle;rounded=0;orthogonalLoop=1;jettySize=auto;html=1;fontFamily=Helvetica;fontSize=12;fontColor=default;" edge="1" parent="1" source="95OTykpPr1zENCsGVvWN-68" target="95OTykpPr1zENCsGVvWN-72">
          <mxGeometry relative="1" as="geometry" />
        </mxCell>
        <mxCell id="95OTykpPr1zENCsGVvWN-74" value="N" style="edgeLabel;html=1;align=center;verticalAlign=middle;resizable=0;points=[];fontSize=12;fontFamily=Helvetica;fontColor=default;" vertex="1" connectable="0" parent="95OTykpPr1zENCsGVvWN-73">
          <mxGeometry x="-0.1605" relative="1" as="geometry">
            <mxPoint as="offset" />
          </mxGeometry>
        </mxCell>
        <mxCell id="95OTykpPr1zENCsGVvWN-68" value="是否达到审核条件" style="rhombus;whiteSpace=wrap;html=1;strokeWidth=2;" vertex="1" parent="1">
          <mxGeometry x="450" y="1290" width="80" height="80" as="geometry" />
        </mxCell>
        <mxCell id="95OTykpPr1zENCsGVvWN-72" value="改所有订单商品价格" style="whiteSpace=wrap;html=1;strokeWidth=2;" vertex="1" parent="1">
          <mxGeometry x="430" y="1460" width="120" height="60" as="geometry" />
        </mxCell>
        <mxCell id="95OTykpPr1zENCsGVvWN-76" style="edgeStyle=orthogonalEdgeStyle;rounded=0;orthogonalLoop=1;jettySize=auto;html=1;entryX=0;entryY=0.5;entryDx=0;entryDy=0;entryPerimeter=0;fontFamily=Helvetica;fontSize=12;fontColor=default;" edge="1" parent="1" source="95OTykpPr1zENCsGVvWN-37" target="95OTykpPr1zENCsGVvWN-48">
          <mxGeometry relative="1" as="geometry" />
        </mxCell>
        <mxCell id="95OTykpPr1zENCsGVvWN-77" style="edgeStyle=orthogonalEdgeStyle;rounded=0;orthogonalLoop=1;jettySize=auto;html=1;entryX=0.5;entryY=1;entryDx=0;entryDy=0;entryPerimeter=0;fontFamily=Helvetica;fontSize=12;fontColor=default;" edge="1" parent="1" source="95OTykpPr1zENCsGVvWN-72" target="95OTykpPr1zENCsGVvWN-48">
          <mxGeometry relative="1" as="geometry" />
        </mxCell>
        <mxCell id="95OTykpPr1zENCsGVvWN-83" value="直接改所有订单价格" style="whiteSpace=wrap;html=1;" vertex="1" parent="1">
          <mxGeometry x="-230" y="1070" width="120" height="60" as="geometry" />
        </mxCell>
        <mxCell id="95OTykpPr1zENCsGVvWN-85" value="结束" style="strokeWidth=2;html=1;shape=mxgraph.flowchart.start_1;whiteSpace=wrap;strokeColor=default;align=center;verticalAlign=middle;fontFamily=Helvetica;fontSize=12;fontColor=default;fillColor=default;" vertex="1" parent="1">
          <mxGeometry x="-220" y="1260" width="100" height="60" as="geometry" />
        </mxCell>
        <mxCell id="95OTykpPr1zENCsGVvWN-86" style="edgeStyle=orthogonalEdgeStyle;rounded=0;orthogonalLoop=1;jettySize=auto;html=1;entryX=0.5;entryY=0;entryDx=0;entryDy=0;entryPerimeter=0;fontFamily=Helvetica;fontSize=12;fontColor=default;" edge="1" parent="1" source="95OTykpPr1zENCsGVvWN-83" target="95OTykpPr1zENCsGVvWN-85">
          <mxGeometry relative="1" as="geometry" />
        </mxCell>
      </root>
    </mxGraphModel>
  </diagram>
</mxfile>
